<?xml version="1.0" encoding="UTF-8" standalone="no"?>
<!DOCTYPE svg PUBLIC "-//W3C//DTD SVG 1.1//EN"
 "http://www.w3.org/Graphics/SVG/1.1/DTD/svg11.dtd">
<!-- Generated by graphviz version 2.39.20160301.1929 (20160301.1929)
 -->
<!-- Title: DCR Pages: 1 -->
<svg width="256pt" height="76pt"
 viewBox="7.20 7.20 249.20 69.20" xmlns="http://www.w3.org/2000/svg" xmlns:xlink="http://www.w3.org/1999/xlink">
<g id="graph0" class="graph" transform="scale(1 1) rotate(0) translate(11.2 65.2)">
<title>DCR</title>
<polygon fill="white" stroke="transparent" points="-4,4 -4,-58 238,-58 238,4 -4,4"/>
<text text-anchor="middle" x="198.5" y="-6.8" font-family="Roboto" font-size="9.00">(Accepting)</text>
<!-- 0 -->
<g id="__eA" class="node">
<title>0</title>
<polygon fill="none" stroke="black" points="54,-54 0,-54 0,-18 54,-18 54,-54"/>
<text text-anchor="middle" x="27" y="-38.8" font-family="Roboto" font-size="9.00">A</text>
</g>
<!-- 1 -->
<g id="__eB" class="node">
<title>1</title>
<polygon fill="#ebebeb" stroke="black" points="144,-54 90,-54 90,-18 144,-18 144,-54"/>
<text text-anchor="middle" x="117" y="-38.8" font-family="Roboto" font-size="9.00">B</text>
</g>
<!-- 0&#45;&gt;1 -->
<g id="edge2" class="edge">
<title>0&#45;&gt;1</title>
<path fill="none" stroke="black" d="M54.003,-36C59.5585,-36 65.5522,-36 71.5565,-36"/>
<ellipse fill="black" stroke="black" cx="85.705" cy="-36" rx="4" ry="4"/>
<polygon fill="black" stroke="black" points="71.705,-39.5001 81.705,-36 71.705,-32.5001 71.705,-39.5001"/>
</g>
<!-- 2 -->
<g id="__eC" class="node">
<title>2</title>
<polygon fill="none" stroke="black" points="234,-54 180,-54 180,-18 234,-18 234,-54"/>
<text text-anchor="middle" x="207" y="-38.8" font-family="Roboto" font-size="9.00">C</text>
</g>
<!-- 1&#45;&gt;2 -->
<g id="edge1" class="edge">
<title>1&#45;&gt;2</title>
<path fill="none" stroke="black" d="M152.191,-36C157.904,-36 163.838,-36 169.601,-36"/>
<ellipse fill="black" stroke="black" cx="148.003" cy="-36" rx="4" ry="4"/>
<polygon fill="black" stroke="black" points="169.705,-39.5001 179.705,-36 169.705,-32.5001 169.705,-39.5001"/>
</g>
</g>
</svg>
